<svg width="81" height="26" viewBox="0 0 81 26" fill="none" xmlns="http://www.w3.org/2000/svg">
  <g clip-path="url(#clip0_649_1618)">
    <path
      d="M39.1535 8.76664C39.1535 9.25692 39.0208 9.6668 38.7556 9.99634C38.4985 10.3178 38.1488 10.5589 37.7068 10.7196C37.2647 10.8804 36.7785 10.9608 36.248 10.9608H32.0767V2.40115H36.8387C37.2406 2.40115 37.5862 2.50965 37.8756 2.72666C38.1729 2.93562 38.398 3.20889 38.5507 3.54646C38.7114 3.88402 38.7918 4.23364 38.7918 4.59531C38.7918 4.99717 38.6873 5.38297 38.4784 5.75268C38.2694 6.11433 37.964 6.38759 37.5621 6.57244C38.0524 6.71713 38.4381 6.97432 38.7195 7.34403C39.0088 7.71374 39.1535 8.18796 39.1535 8.76664ZM37.1401 8.36879C37.1401 8.18393 37.104 8.02319 37.0316 7.88657C36.9593 7.74188 36.8628 7.62937 36.7423 7.54897C36.6298 7.46057 36.4931 7.41637 36.3324 7.41637H34.0539V9.28501H36.248C36.4168 9.28501 36.5655 9.24484 36.6941 9.16449C36.8307 9.08409 36.9392 8.97561 37.0196 8.83898C37.1 8.7023 37.1401 8.54559 37.1401 8.36879ZM34.0539 4.08896V5.86116H35.9949C36.1395 5.86116 36.2721 5.82905 36.3927 5.76471C36.5213 5.70042 36.6258 5.60397 36.7061 5.4754C36.7865 5.33877 36.8267 5.16997 36.8267 4.96904C36.8267 4.77615 36.7906 4.6154 36.7182 4.48681C36.6539 4.35821 36.5655 4.26177 36.453 4.19747C36.3405 4.12513 36.2119 4.08896 36.0672 4.08896H34.0539ZM40.0539 8.68222V4.63148H41.9828V8.2603C41.9828 8.64607 42.0592 8.94344 42.2119 9.15241C42.3646 9.35332 42.5816 9.4538 42.8629 9.4538C43.0397 9.4538 43.2085 9.42566 43.3692 9.36943C43.53 9.30509 43.6867 9.20466 43.8394 9.06804C43.9921 8.93141 44.1288 8.75456 44.2493 8.53758V4.63148H46.1782V8.81487C46.1782 9.00773 46.2064 9.14435 46.2627 9.22475C46.3269 9.29709 46.4354 9.34129 46.5882 9.35735V10.9608C46.4113 10.993 46.2546 11.0171 46.118 11.0331C45.9894 11.0492 45.8728 11.0572 45.7684 11.0572C45.4308 11.0572 45.1615 10.9889 44.9606 10.8523C44.7597 10.7076 44.6351 10.5067 44.5869 10.2495L44.5507 9.86369C44.2614 10.2816 43.8997 10.5911 43.4657 10.792C43.0397 10.9849 42.5615 11.0814 42.031 11.0814C41.3881 11.0814 40.8978 10.8764 40.5602 10.4665C40.2227 10.0566 40.0539 9.46186 40.0539 8.68222ZM47.6726 10.9608V4.63148H49.6015V10.9608H47.6726ZM47.6726 3.90813V2.16003H49.6015V3.90813H47.6726ZM50.8979 2.16003H52.8266V8.70633C52.8266 8.97158 52.8751 9.16046 52.9714 9.27298C53.0678 9.38549 53.2044 9.44177 53.3813 9.44177C53.5021 9.44177 53.6224 9.42566 53.7433 9.39355C53.8717 9.35332 53.9844 9.30912 54.0808 9.26089L54.3336 10.7076C54.0925 10.8201 53.8157 10.9085 53.5021 10.9728C53.1886 11.0372 52.895 11.0693 52.6217 11.0693C52.0752 11.0693 51.6495 10.9246 51.3441 10.6353C51.0466 10.3379 50.8979 9.91997 50.8979 9.38146V2.16003ZM54.5987 7.79011C54.5987 7.17126 54.719 6.61669 54.9602 6.12642C55.2013 5.62808 55.5312 5.23426 55.9487 4.94493C56.3667 4.65559 56.849 4.51092 57.3955 4.51092C57.8375 4.51092 58.2392 4.61942 58.6012 4.83643C58.9626 5.04539 59.2359 5.32266 59.421 5.66826V2.16003H61.3501V8.81487C61.3501 9.00773 61.3822 9.14435 61.4464 9.22475C61.5106 9.29709 61.6152 9.34129 61.7599 9.35735V10.9608C61.4219 11.0251 61.1487 11.0572 60.9402 11.0572C60.6103 11.0572 60.3412 10.9849 60.1321 10.8402C59.9313 10.6955 59.8069 10.4946 59.7584 10.2374L59.7222 9.91191C59.4974 10.3057 59.1921 10.5991 58.8061 10.792C58.4202 10.9849 58.0144 11.0814 57.5882 11.0814C57.1544 11.0814 56.7526 11.001 56.383 10.8402C56.0211 10.6714 55.7035 10.4384 55.4302 10.141C55.1651 9.8436 54.9602 9.49398 54.8154 9.09215C54.6711 8.69027 54.5987 8.25627 54.5987 7.79011ZM59.4332 8.57373V7.24758C59.3526 7.0306 59.2359 6.84172 59.0835 6.68098C58.9387 6.52024 58.7699 6.39162 58.5772 6.29516C58.3922 6.19876 58.203 6.15053 58.0103 6.15053C57.8013 6.15053 57.6086 6.19473 57.4317 6.28313C57.263 6.37153 57.1141 6.49613 56.9856 6.65687C56.8572 6.80955 56.7567 6.9864 56.6843 7.18732C56.6201 7.38823 56.588 7.60123 56.588 7.82625C56.588 8.05934 56.6242 8.27636 56.6961 8.47727C56.7766 8.67018 56.8852 8.84296 57.0218 8.99569C57.1584 9.14038 57.319 9.25289 57.5041 9.33324C57.6886 9.41363 57.89 9.4538 58.1067 9.4538C58.2433 9.4538 58.3759 9.43372 58.5048 9.39355C58.6333 9.34532 58.7536 9.28501 58.8663 9.21267C58.9871 9.14038 59.0952 9.04795 59.1921 8.93538C59.2884 8.82287 59.3684 8.7023 59.4332 8.57373ZM65.8746 11.0814C65.3357 11.0814 64.8575 10.9969 64.4395 10.8282C64.0219 10.6513 63.6641 10.4143 63.3668 10.1169C63.0773 9.81949 62.8565 9.47792 62.7036 9.09215C62.5512 8.69833 62.4747 8.28839 62.4747 7.86245C62.4747 7.2516 62.6072 6.69704 62.8723 6.19876C63.1456 5.69237 63.5356 5.28651 64.0418 4.9811C64.5481 4.66764 65.1588 4.51092 65.8746 4.51092C66.5898 4.51092 67.1965 4.66363 67.6946 4.96904C68.2013 5.27443 68.5867 5.67631 68.8523 6.17464C69.1174 6.66487 69.25 7.19935 69.25 7.77803C69.25 7.89059 69.2418 8.00311 69.226 8.11562C69.2179 8.22008 69.2097 8.31251 69.2015 8.3929H64.5241C64.548 8.67421 64.6245 8.91127 64.753 9.10418C64.8896 9.29709 65.0624 9.44575 65.2715 9.55026C65.4805 9.64671 65.7017 9.69494 65.9347 9.69494C66.2238 9.69494 66.4935 9.62663 66.7423 9.48995C66.9997 9.35332 67.1766 9.16847 67.273 8.93538L68.9125 9.39355C68.7519 9.72303 68.5225 10.0164 68.2253 10.2736C67.9357 10.5228 67.5901 10.7196 67.1883 10.8643C66.7948 11.009 66.3568 11.0814 65.8746 11.0814ZM64.4757 7.21143H67.2245C67.1924 6.94618 67.1159 6.71713 66.9956 6.52427C66.8748 6.3233 66.7142 6.17062 66.5134 6.06611C66.3125 5.95359 66.0912 5.89736 65.8501 5.89736C65.6013 5.89736 65.376 5.95359 65.1751 6.06611C64.9824 6.17062 64.8254 6.3233 64.7051 6.52427C64.5842 6.71713 64.5078 6.94618 64.4757 7.21143ZM74.139 6.28313C73.6725 6.28313 73.2509 6.3595 72.8732 6.51218C72.4954 6.65687 72.2221 6.87384 72.0534 7.1632V10.9608H70.1243V4.63148H71.8964V5.90939C72.1135 5.4834 72.395 5.14989 72.7401 4.90876C73.0857 4.66765 73.4477 4.54307 73.8255 4.53503C73.9137 4.53503 73.9779 4.53503 74.0182 4.53503C74.0666 4.53503 74.1069 4.53905 74.139 4.54709V6.28313ZM77.3747 11.0814C76.8359 11.0814 76.3097 10.993 75.7953 10.8161C75.281 10.6393 74.8466 10.3781 74.4933 10.0325L75.1561 8.81487C75.542 9.09613 75.9157 9.30912 76.2776 9.4538C76.6472 9.59849 76.9929 9.67083 77.3141 9.67083C77.5634 9.67083 77.7561 9.6306 77.8927 9.55026C78.0293 9.46986 78.0976 9.34532 78.0976 9.17652C78.0976 9.05595 78.0579 8.96353 77.9773 8.89924C77.8968 8.8269 77.7724 8.76261 77.6036 8.70633C77.443 8.6501 77.2417 8.58979 77.0005 8.5255C76.5188 8.36476 76.1165 8.20805 75.7953 8.05531C75.4737 7.90262 75.2325 7.71777 75.0719 7.50075C74.9108 7.27572 74.8308 6.9864 74.8308 6.63275C74.8308 6.20676 74.9353 5.83705 75.1443 5.52362C75.361 5.20214 75.6664 4.95296 76.0605 4.77615C76.454 4.59933 76.9246 4.51092 77.4711 4.51092C77.9049 4.51092 78.327 4.57924 78.7369 4.71587C79.155 4.8525 79.5444 5.08156 79.9064 5.40306L79.1585 6.60864C78.7971 6.3595 78.4754 6.17862 78.1945 6.06611C77.9131 5.95359 77.6398 5.89736 77.3747 5.89736C77.2381 5.89736 77.1132 5.91342 77.0005 5.94554C76.8884 5.97771 76.7956 6.03399 76.7237 6.11433C76.659 6.18667 76.6268 6.28313 76.6268 6.4037C76.6268 6.52427 76.659 6.62067 76.7237 6.69301C76.7956 6.76535 76.9042 6.82964 77.049 6.88592C77.2019 6.93415 77.3905 6.99441 77.6153 7.06675C78.1379 7.21944 78.5722 7.3762 78.9174 7.53694C79.263 7.68963 79.5205 7.88254 79.6892 8.11562C79.8661 8.34065 79.9543 8.64204 79.9543 9.01981C79.9543 9.66277 79.7214 10.1691 79.2554 10.5388C78.7971 10.9005 78.17 11.0814 77.3747 11.0814ZM35.7055 23.7661C35.1429 23.7661 34.6125 23.6617 34.1141 23.4527C33.6159 23.2357 33.1778 22.9343 32.8001 22.5485C32.4223 22.1547 32.1249 21.6926 31.9079 21.1621C31.6989 20.6236 31.5945 20.0248 31.5945 19.3658C31.5945 18.771 31.703 18.2165 31.92 17.7021C32.137 17.1877 32.4384 16.7336 32.8242 16.3398C33.2099 15.946 33.6601 15.6405 34.1744 15.4236C34.6968 15.1985 35.2595 15.086 35.8623 15.086C36.6499 15.086 37.3451 15.2548 37.9479 15.5923C38.5507 15.9299 38.9967 16.384 39.2861 16.9546L37.8153 18.0638C37.6224 17.686 37.3411 17.3886 36.9714 17.1716C36.6097 16.9546 36.2159 16.8461 35.7899 16.8461C35.4684 16.8461 35.171 16.9144 34.8978 17.0511C34.6326 17.1797 34.3995 17.3645 34.1985 17.6056C34.0057 17.8387 33.8569 18.112 33.7525 18.4254C33.648 18.7389 33.5957 19.0765 33.5957 19.4381C33.5957 19.8078 33.652 20.1494 33.7645 20.4629C33.877 20.7763 34.0338 21.0496 34.2347 21.2827C34.4356 21.5077 34.6727 21.6845 34.946 21.8131C35.2273 21.9417 35.5367 22.006 35.8743 22.006C36.2842 22.006 36.674 21.9056 37.0437 21.7046C37.4214 21.4956 37.767 21.1903 38.0805 20.7884V22.7414C37.3973 23.4246 36.6057 23.7661 35.7055 23.7661ZM37.9599 20.6678H36.2962V19.2332H39.5995V23.7059H37.9599V20.6678ZM40.3521 21.8131C40.3521 21.3952 40.4686 21.0295 40.7017 20.716C40.9348 20.4026 41.2563 20.1574 41.6662 19.9806C42.0761 19.7958 42.5462 19.7034 43.0767 19.7034C43.3339 19.7034 43.5871 19.7275 43.8362 19.7757C44.0854 19.8159 44.3024 19.8761 44.4872 19.9565V19.6792C44.4872 19.3337 44.3828 19.0684 44.1738 18.8835C43.9648 18.6987 43.6474 18.6063 43.2214 18.6063C42.8677 18.6063 42.5342 18.6666 42.2207 18.7871C41.9153 18.9077 41.5898 19.0805 41.2442 19.3055L40.6655 18.0758C41.0835 17.8026 41.5175 17.5976 41.9676 17.461C42.4257 17.3243 42.9079 17.256 43.4143 17.256C44.3627 17.256 45.0981 17.4851 45.6205 17.9432C46.1509 18.3933 46.4162 19.0483 46.4162 19.9083V21.56C46.4162 21.7528 46.4443 21.8895 46.5005 21.9698C46.5649 22.0422 46.6734 22.0864 46.826 22.1024V23.7059C46.6653 23.7381 46.5126 23.7622 46.3679 23.7782C46.2313 23.7943 46.1107 23.8023 46.0063 23.8023C45.6446 23.8023 45.3673 23.73 45.1744 23.5853C44.9896 23.4406 44.873 23.2437 44.8248 22.9946L44.7886 22.7173C44.5073 23.079 44.1698 23.3563 43.7759 23.5492C43.3902 23.734 42.9843 23.8265 42.5583 23.8265C42.1404 23.8265 41.7626 23.7381 41.425 23.5612C41.0955 23.3844 40.8343 23.1433 40.6414 22.8378C40.4486 22.5325 40.3521 22.1908 40.3521 21.8131ZM44.1858 22.0542C44.2742 21.9819 44.3466 21.9015 44.4028 21.8131C44.4591 21.7247 44.4872 21.6403 44.4872 21.56V20.9933C44.3265 20.929 44.1456 20.8808 43.9447 20.8486C43.7518 20.8085 43.571 20.7884 43.4022 20.7884C43.0486 20.7884 42.7552 20.8687 42.5221 21.0295C42.289 21.1822 42.1725 21.3871 42.1725 21.6443C42.1725 21.789 42.2127 21.9216 42.2931 22.0422C42.3735 22.1628 42.482 22.2592 42.6186 22.3315C42.7633 22.4038 42.932 22.44 43.1249 22.44C43.3178 22.44 43.5107 22.4038 43.7036 22.3315C43.8965 22.2592 44.0573 22.1667 44.1858 22.0542ZM51.8284 19.0282C51.3625 19.0282 50.9404 19.1046 50.5626 19.2573C50.1849 19.402 49.9116 19.6189 49.7428 19.9083V23.7059H47.8139V17.3766H49.5861V18.6545C49.8031 18.2285 50.0844 17.895 50.43 17.6538C50.7756 17.4128 51.1373 17.2882 51.5149 17.2801C51.6036 17.2801 51.6679 17.2801 51.7081 17.2801C51.7561 17.2801 51.7963 17.2841 51.8284 17.2922V19.0282ZM52.2439 20.5352C52.2439 19.9164 52.3643 19.3618 52.6054 18.8715C52.8465 18.3732 53.1764 17.9794 53.5944 17.69C54.0119 17.4007 54.4942 17.256 55.0407 17.256C55.4827 17.256 55.885 17.3645 56.2464 17.5815C56.6084 17.7905 56.8816 18.0678 57.0662 18.4134V14.9051H58.9953V21.56C58.9953 21.7528 59.0274 21.8895 59.0916 21.9698C59.1559 22.0422 59.2604 22.0864 59.4052 22.1024V23.7059C59.0677 23.7702 58.7944 23.8023 58.5854 23.8023C58.2555 23.8023 57.9864 23.73 57.7773 23.5853C57.5765 23.4406 57.4521 23.2397 57.4037 22.9825L57.3675 22.657C57.1426 23.0508 56.8373 23.3442 56.4513 23.5371C56.0654 23.73 55.6596 23.8265 55.2339 23.8265C54.7996 23.8265 54.3979 23.7461 54.0283 23.5853C53.6663 23.4165 53.3492 23.1835 53.0759 22.8861C52.8103 22.5887 52.6054 22.2391 52.4611 21.8372C52.3163 21.4354 52.2439 21.0014 52.2439 20.5352ZM57.0784 21.3188V19.9927C56.9979 19.7757 56.8816 19.5868 56.7287 19.4261C56.5839 19.2653 56.4151 19.1367 56.2224 19.0403C56.0374 18.9439 55.8488 18.8956 55.6555 18.8956C55.4465 18.8956 55.2538 18.9398 55.0769 19.0282C54.9082 19.1166 54.7598 19.2412 54.6308 19.402C54.5024 19.5547 54.4019 19.7315 54.3295 19.9324C54.2653 20.1333 54.2332 20.3463 54.2332 20.5714C54.2332 20.8044 54.2694 21.0215 54.3418 21.2224C54.4218 21.4153 54.5304 21.5881 54.667 21.7408C54.8037 21.8855 54.9648 21.998 55.1493 22.0783C55.3344 22.1587 55.5352 22.1989 55.7524 22.1989C55.889 22.1989 56.0216 22.1788 56.1501 22.1386C56.2785 22.0904 56.3993 22.0301 56.5115 21.9578C56.6323 21.8855 56.7409 21.793 56.8373 21.6805C56.9336 21.568 57.0142 21.4474 57.0784 21.3188ZM63.5198 23.8265C62.9814 23.8265 62.5032 23.742 62.0852 23.5733C61.6672 23.3964 61.3093 23.1594 61.0121 22.862C60.723 22.5646 60.5017 22.223 60.3488 21.8372C60.1964 21.4434 60.1199 21.0335 60.1199 20.6075C60.1199 19.9967 60.2524 19.4421 60.5181 18.9439C60.7913 18.4375 61.1808 18.0316 61.687 17.7262C62.1938 17.4128 62.8045 17.256 63.5198 17.256C64.235 17.256 64.8417 17.4087 65.3403 17.7142C65.8465 18.0195 66.2324 18.4214 66.4975 18.9197C66.7626 19.41 66.8952 19.9445 66.8952 20.5231C66.8952 20.6357 66.8875 20.7482 66.8712 20.8607C66.8631 20.9652 66.8549 21.0576 66.8473 21.138H62.1693C62.1938 21.4193 62.2697 21.6564 62.3987 21.8493C62.5353 22.0422 62.7082 22.1908 62.9167 22.2954C63.1257 22.3918 63.347 22.44 63.5799 22.44C63.8695 22.44 64.1387 22.3717 64.388 22.235C64.6449 22.0984 64.8218 21.9136 64.9182 21.6805L66.5577 22.1386C66.3971 22.4681 66.1682 22.7615 65.8705 23.0187C65.5814 23.2679 65.2358 23.4647 64.8335 23.6094C64.44 23.7541 64.0021 23.8265 63.5198 23.8265ZM62.1214 19.9565H64.8697C64.8376 19.6913 64.7617 19.4622 64.6408 19.2694C64.5205 19.0684 64.3594 18.9157 64.1586 18.8112C63.9577 18.6987 63.737 18.6425 63.4958 18.6425C63.2465 18.6425 63.0212 18.6987 62.8203 18.8112C62.6276 18.9157 62.4706 19.0684 62.3503 19.2694C62.23 19.4622 62.1535 19.6913 62.1214 19.9565ZM73.8698 23.7059H71.9407V20.1494C71.9407 19.7315 71.8607 19.4301 71.6996 19.2453C71.5472 19.0523 71.3422 18.9559 71.0848 18.9559C70.9079 18.9559 70.7274 19.0041 70.5423 19.1006C70.3578 19.197 70.1885 19.3296 70.0361 19.4984C69.8913 19.6672 69.7786 19.8601 69.6986 20.0771V23.7059H67.7695V17.3766H69.5054V18.4375C69.6665 18.1883 69.8674 17.9753 70.1085 17.7985C70.3496 17.6217 70.627 17.4891 70.9405 17.4007C71.2535 17.3042 71.5951 17.256 71.9652 17.256C72.3751 17.256 72.7044 17.3324 72.9537 17.4851C73.2106 17.6297 73.4039 17.8226 73.5323 18.0638C73.669 18.3049 73.7571 18.5661 73.7974 18.8474C73.8459 19.1207 73.8698 19.3899 73.8698 19.6551V23.7059Z"
      fill="#EBFAF8" />
    <mask id="mask0_649_1618" style="mask-type:luminance" maskUnits="userSpaceOnUse" x="0" y="0"
      width="25" height="26">
      <path d="M24.1642 0.698242H0.225586V25.2279H24.1642V0.698242Z" fill="white" />
    </mask>
    <g mask="url(#mask0_649_1618)">
      <path
        d="M23.8989 12.9425C23.8278 12.7165 23.7433 12.495 23.6461 12.2789C23.6151 12.2099 23.5829 12.1415 23.5493 12.0738C23.5329 12.0405 23.5161 12.0074 23.4989 11.9744C23.3345 11.6568 23.1418 11.3522 22.9229 11.0641C22.8877 11.0179 22.8519 10.9721 22.8155 10.9267C22.7612 10.859 22.7052 10.7922 22.648 10.7265C22.6037 10.6759 22.5587 10.6256 22.5126 10.5762C22.4842 10.5457 22.4556 10.5152 22.4265 10.4851C22.2699 10.3227 22.1039 10.1673 21.9291 10.0196C21.8222 9.9294 21.7125 9.84253 21.6005 9.75918C21.8282 9.39171 22.0193 9.00477 22.1716 8.60187C22.4283 7.92363 22.5676 7.22081 22.586 6.5129C22.5947 6.18127 22.5766 5.85423 22.5323 5.53326C22.5238 5.47223 22.5144 5.41152 22.5042 5.35095C22.4914 5.27591 22.4772 5.20133 22.4615 5.12705C22.4014 4.84241 22.3202 4.56336 22.2177 4.29116C22.0658 3.88876 21.8712 3.51106 21.6358 3.16045C21.4365 2.86355 21.2085 2.58594 20.9519 2.33C20.7954 2.17398 20.6305 2.02863 20.4584 1.89381C19.4694 1.11897 18.2347 0.698242 16.9176 0.698242C16.071 0.698242 15.2354 0.868761 14.4334 1.20487C13.6179 1.54671 12.8814 2.04234 12.2439 2.67789C12.2274 2.69431 12.2111 2.71072 12.1948 2.7273C12.1785 2.71072 12.1622 2.69431 12.1458 2.67789C11.5083 2.04218 10.7718 1.54655 9.95632 1.20487C9.15444 0.868603 8.31882 0.698242 7.47235 0.698242C5.92575 0.698242 4.49298 1.27786 3.4378 2.33016C2.37607 3.38899 1.79503 4.82711 1.80174 6.37933C1.80269 6.60466 1.81612 6.82989 1.84169 7.05395C1.84888 7.11768 1.85719 7.18125 1.86646 7.24487C1.87349 7.29269 1.881 7.34046 1.88899 7.38828C1.89906 7.44773 1.90992 7.50702 1.92159 7.56615C1.92447 7.58063 1.9275 7.59531 1.93038 7.60979C1.94204 7.66623 1.95435 7.72266 1.96745 7.77889C1.98008 7.83263 1.99334 7.88616 2.00724 7.93969C2.0392 8.06194 2.07468 8.18353 2.11383 8.30399C2.12134 8.32729 2.12902 8.35054 2.13685 8.37363C2.17551 8.48854 2.21754 8.60248 2.26261 8.71551C2.40643 9.07533 2.58237 9.42485 2.78932 9.75902C2.67682 9.84268 2.56688 9.92986 2.45949 10.0206C1.52352 10.8115 0.842602 11.8222 0.490396 12.9433C0.30854 13.5234 0.219371 14.1195 0.225922 14.7145C0.227201 14.829 0.231995 14.9431 0.240305 15.0565C0.243661 15.1018 0.247496 15.1469 0.25197 15.1922C0.258682 15.2602 0.266672 15.3281 0.275781 15.3958C0.277219 15.4065 0.278658 15.417 0.280255 15.4277C0.310618 15.6419 0.353764 15.8538 0.409376 16.0631C0.414809 16.0833 0.420242 16.1036 0.425836 16.1238C0.440538 16.1765 0.456038 16.229 0.472179 16.2814C0.498706 16.3668 0.527151 16.4518 0.557833 16.5361C0.590592 16.6258 0.625909 16.7144 0.663143 16.8021C0.871528 17.2923 1.14894 17.7484 1.49092 18.1608C1.6111 18.3058 1.73862 18.4447 1.87317 18.5771C1.98647 18.6886 2.10488 18.7956 2.22777 18.8977C2.32749 18.9806 2.43024 19.0603 2.53587 19.1368C2.5934 19.1784 2.65189 19.2192 2.71118 19.2589C2.75928 19.2911 2.80785 19.3229 2.85708 19.3538C2.8689 19.3612 2.88088 19.3684 2.89271 19.3757C2.96702 19.4216 3.04229 19.466 3.11835 19.5086C3.16054 19.5322 3.20289 19.5555 3.24572 19.5781C4.15084 20.0568 5.17885 20.3083 6.24571 20.3083C6.27094 20.3083 6.29633 20.3083 6.32162 20.3078C6.26472 20.3587 6.20686 20.4089 6.14823 20.4581L4.30856 21.9761C4.30856 21.9761 5.19787 22.8056 6.35292 23.5347C8.09782 24.6424 10.1177 25.228 12.1942 25.228C14.2707 25.228 16.2326 24.659 17.9597 23.5827C19.1248 22.8728 20.0141 22.0433 20.0141 22.0433L18.1911 20.5086C18.1136 20.4425 18.0379 20.3748 17.9636 20.3057C18.0235 20.3073 18.0836 20.3081 18.1437 20.3081C19.366 20.3081 20.5373 19.9782 21.5313 19.3541C22.053 19.0266 22.513 18.6252 22.8978 18.1613C23.3011 17.6751 23.6151 17.1283 23.8313 16.5363C24.045 15.9509 24.1567 15.3378 24.1636 14.7142C24.164 14.6771 24.164 14.6398 24.1636 14.6027C24.1585 14.0445 24.0699 13.4866 23.8989 12.9425ZM7.38476 21.92C7.41051 21.8985 7.4359 21.8768 7.46133 21.8549C7.4701 21.8474 7.47872 21.84 7.48739 21.8323C7.50462 21.8173 7.5219 21.8025 7.53898 21.7875C7.54922 21.7786 7.55927 21.7695 7.56952 21.7604C7.58501 21.7468 7.60051 21.7329 7.61601 21.719C7.62672 21.7094 7.63727 21.6997 7.64797 21.6902C7.66281 21.6768 7.67754 21.6633 7.69222 21.6497C7.70308 21.6398 7.71379 21.6298 7.7245 21.6197C7.73902 21.6062 7.75345 21.5928 7.76798 21.5791C7.77869 21.569 7.78924 21.559 7.79995 21.549C7.81448 21.5351 7.82901 21.5212 7.84359 21.5072C7.85378 21.4973 7.86403 21.4875 7.87422 21.4776C7.88926 21.4629 7.9043 21.4481 7.91929 21.4334C7.92872 21.4242 7.93815 21.4148 7.94759 21.4055C7.96436 21.3888 7.98113 21.3721 7.99775 21.3552C8.00514 21.3477 8.01264 21.3402 8.02013 21.3327C8.04409 21.3083 8.0679 21.284 8.09155 21.2592C8.09589 21.2548 8.10007 21.2503 8.1042 21.246C8.12367 21.2256 8.14304 21.2053 8.16221 21.1848C8.17068 21.1759 8.17899 21.1668 8.18745 21.1577C8.20249 21.1416 8.21732 21.1255 8.23221 21.1095C8.24164 21.0993 8.25092 21.089 8.26015 21.0787C8.27391 21.0635 8.28768 21.0484 8.30139 21.0331C8.31097 21.0224 8.32056 21.0116 8.33014 21.0008C8.34345 20.9858 8.3567 20.9709 8.36981 20.9558C8.37939 20.9448 8.38913 20.9337 8.39871 20.9227C8.41181 20.9077 8.42476 20.8925 8.43771 20.8775C8.44714 20.8665 8.45657 20.8554 8.46601 20.8444C8.47911 20.829 8.49221 20.8133 8.50516 20.7979C8.51408 20.7871 8.5232 20.7763 8.53213 20.7655C8.54574 20.7491 8.5593 20.7326 8.57291 20.7159C8.58107 20.7059 8.58938 20.6959 8.59753 20.6859C8.61334 20.6662 8.62899 20.6467 8.64464 20.6269C8.65025 20.6197 8.65601 20.6127 8.66177 20.6055C8.68303 20.5787 8.70408 20.5516 8.72488 20.5247C8.73013 20.518 8.73528 20.5111 8.74038 20.5045C8.75603 20.4841 8.77168 20.4635 8.78718 20.443C8.79488 20.4327 8.80237 20.4225 8.81007 20.4125C8.82297 20.3952 8.83592 20.3778 8.84887 20.3604C8.85718 20.3492 8.86533 20.3379 8.87349 20.3266C8.88547 20.3102 8.89745 20.2936 8.90943 20.277C8.9179 20.2653 8.92641 20.2533 8.93487 20.2415C8.94634 20.2252 8.95786 20.209 8.96939 20.1926C8.97785 20.1806 8.98616 20.1685 8.99447 20.1566C9.00599 20.1402 9.01731 20.1236 9.02868 20.107C9.03683 20.095 9.04494 20.0833 9.0531 20.0713C9.06462 20.0543 9.07614 20.0372 9.08746 20.02C9.09515 20.0085 9.1028 19.9971 9.1105 19.9854C9.12263 19.9671 9.13461 19.9486 9.14659 19.9301C9.15332 19.9198 9.16015 19.9094 9.16688 19.899C9.18192 19.8758 9.19676 19.8523 9.21149 19.8289C9.21501 19.8232 9.21868 19.8176 9.22235 19.8118C9.24055 19.7828 9.2586 19.7537 9.27649 19.7244C9.28195 19.7156 9.2872 19.7067 9.2925 19.6979C9.30494 19.6774 9.31743 19.6567 9.32987 19.6359C9.33675 19.6244 9.34348 19.613 9.35016 19.6015C9.36086 19.5834 9.37177 19.565 9.38233 19.5467C9.38951 19.5343 9.3965 19.5218 9.40374 19.5095C9.41378 19.492 9.42382 19.4743 9.43392 19.4567C9.44111 19.4439 9.44829 19.4311 9.45548 19.4182C9.46522 19.4007 9.47501 19.3832 9.48459 19.3657C9.49163 19.3527 9.49861 19.34 9.50565 19.3271C9.51544 19.3092 9.52502 19.2914 9.53445 19.2735C9.54113 19.2608 9.54801 19.2482 9.55474 19.2355C9.56448 19.217 9.57422 19.1983 9.5838 19.1798C9.59002 19.1677 9.59644 19.1556 9.60266 19.1433C9.61306 19.1231 9.62326 19.1027 9.63366 19.0823C9.63896 19.0718 9.64437 19.0613 9.64967 19.0506C9.6642 19.0214 9.67857 18.9922 9.6928 18.9629C9.69361 18.9612 9.69458 18.9594 9.69535 18.9577C9.71039 18.9266 9.72522 18.8954 9.73995 18.8641C9.74475 18.8539 9.74954 18.8436 9.75433 18.8332C9.76407 18.812 9.77396 18.791 9.78354 18.7698C9.78915 18.7573 9.79476 18.7449 9.80037 18.7325C9.80898 18.7132 9.8176 18.6941 9.82621 18.6746C9.83213 18.6614 9.83789 18.6482 9.84365 18.635C9.8518 18.6163 9.85996 18.5976 9.86797 18.5788C9.87368 18.5653 9.87959 18.5516 9.8852 18.5381C9.89305 18.5194 9.90085 18.5008 9.90855 18.4821C9.9141 18.4686 9.91971 18.4549 9.92532 18.4411C9.93297 18.4222 9.94066 18.4032 9.94831 18.3841C9.95377 18.3707 9.95902 18.3573 9.96432 18.3438C9.97212 18.3239 9.97982 18.3039 9.98746 18.284C9.99226 18.2714 9.9972 18.2588 10.002 18.2462C10.0107 18.2238 10.019 18.2012 10.0274 18.1787C10.0313 18.1685 10.0351 18.1585 10.0387 18.1484C10.0508 18.1157 10.0626 18.0829 10.0742 18.0499C10.0759 18.0453 10.0774 18.0407 10.079 18.0362C10.089 18.0079 10.0989 17.9795 10.1086 17.9511C10.1126 17.9395 10.1164 17.9277 10.1204 17.916C10.1276 17.8945 10.1348 17.873 10.1418 17.8515C10.1462 17.8381 10.1505 17.8247 10.1548 17.8113C10.1612 17.7912 10.1677 17.7712 10.1739 17.7511C10.1783 17.7371 10.1826 17.7232 10.1871 17.7092C10.1931 17.6896 10.1992 17.6698 10.2052 17.6501C10.2094 17.6357 10.2138 17.6215 10.2179 17.6072C10.2237 17.5876 10.2294 17.5678 10.2352 17.5481C10.2393 17.5339 10.2433 17.5195 10.2475 17.5053C10.2532 17.4853 10.2588 17.465 10.2642 17.445C10.2681 17.4311 10.2719 17.4172 10.2756 17.4034C10.2814 17.3822 10.2869 17.3608 10.2925 17.3395C10.2959 17.3266 10.2993 17.3138 10.3026 17.3009C10.309 17.276 10.3152 17.251 10.3215 17.226C10.3237 17.2167 10.3261 17.2075 10.3283 17.1982C10.3366 17.164 10.3449 17.1296 10.3529 17.0952C10.3549 17.0872 10.3566 17.0792 10.3584 17.0711C10.3645 17.0446 10.3705 17.018 10.3763 16.9914C10.379 16.9787 10.3817 16.9659 10.3844 16.9533C10.3892 16.9313 10.3938 16.9093 10.3985 16.8872C10.4014 16.873 10.4042 16.859 10.4071 16.8448C10.4113 16.8239 10.4154 16.8032 10.4196 16.7823C10.4225 16.7677 10.4252 16.753 10.428 16.7382C10.4319 16.7176 10.4357 16.6972 10.4394 16.6767C10.4421 16.6618 10.4448 16.647 10.4474 16.632C10.449 16.6229 10.4507 16.614 10.4522 16.6049C10.4525 16.6035 10.4525 16.6022 10.4527 16.6008C10.4942 16.36 10.5263 16.116 10.5482 15.869C10.4369 16.0814 10.3064 16.2863 10.1585 16.4818C10.1549 16.4863 10.1513 16.491 10.1477 16.4958C10.1318 16.5166 10.1158 16.5374 10.0995 16.5579C10.0929 16.5662 10.0864 16.5743 10.0797 16.5826C10.0656 16.6001 10.0514 16.6175 10.037 16.6349C10.0303 16.643 10.0234 16.6513 10.0167 16.6594C9.99995 16.6795 9.98282 16.6994 9.96559 16.7192C9.96157 16.7238 9.95759 16.7286 9.95361 16.7332C9.93235 16.7575 9.91094 16.7814 9.88902 16.8053C9.88295 16.8118 9.87689 16.8183 9.87097 16.8249C9.85481 16.8424 9.8384 16.8598 9.82193 16.8771C9.81423 16.8851 9.80674 16.8931 9.79909 16.9009C9.78293 16.9176 9.76662 16.934 9.7503 16.9506C9.74332 16.9576 9.73644 16.9648 9.72925 16.9716C9.70605 16.9946 9.68275 17.0174 9.65889 17.0398C9.65731 17.0413 9.65589 17.0427 9.65431 17.0442C9.63208 17.0652 9.60955 17.0861 9.58671 17.1069C9.57901 17.114 9.57121 17.121 9.56336 17.1278C9.54608 17.1433 9.52884 17.1587 9.51126 17.174C9.50295 17.1814 9.49448 17.1887 9.48602 17.1959C9.467 17.2123 9.44784 17.2284 9.42846 17.2445C9.42209 17.2497 9.41587 17.2551 9.40945 17.2604C9.38391 17.2814 9.35816 17.3022 9.33211 17.3229C9.32604 17.3277 9.31998 17.3323 9.31391 17.3371C9.29362 17.353 9.27318 17.3688 9.25238 17.3844C9.24346 17.3911 9.23448 17.3979 9.22536 17.4047C9.2065 17.4187 9.18768 17.4325 9.16867 17.4464C9.15985 17.4528 9.15108 17.4592 9.14226 17.4654C9.11815 17.4826 9.09388 17.4996 9.06941 17.5164C9.06604 17.5188 9.06268 17.5211 9.05931 17.5234C9.03153 17.5424 9.00339 17.561 8.97515 17.5795C8.96684 17.5849 8.95817 17.5903 8.94986 17.5957C8.92942 17.6089 8.90882 17.622 8.88802 17.6349C8.87828 17.641 8.86839 17.6472 8.85845 17.6532C8.8374 17.6661 8.81614 17.6789 8.79488 17.6917C8.78642 17.6966 8.77811 17.7017 8.76944 17.7068C8.74008 17.724 8.71035 17.7411 8.68043 17.7578C8.67579 17.7603 8.671 17.7629 8.66641 17.7654C8.64082 17.7796 8.61522 17.7935 8.58938 17.8072C8.57944 17.8124 8.56939 17.8177 8.5593 17.823C8.53789 17.8341 8.51632 17.8453 8.49461 17.8561C8.4842 17.8614 8.47396 17.8665 8.46361 17.8717C8.43883 17.884 8.41406 17.896 8.38897 17.9079C8.38224 17.9111 8.37572 17.9143 8.36899 17.9175C8.33753 17.9323 8.30572 17.9468 8.27376 17.961C8.2653 17.9648 8.25683 17.9683 8.24832 17.972C8.22436 17.9825 8.20024 17.9929 8.17593 18.0031C8.16492 18.0077 8.1539 18.0123 8.14289 18.0168C8.1197 18.0263 8.09635 18.0357 8.07305 18.0448C8.0628 18.0488 8.05261 18.0529 8.04236 18.0569C8.00927 18.0697 7.97619 18.0823 7.94264 18.0944C7.37834 18.2992 6.80359 18.3964 6.24647 18.3964C5.38195 18.3964 4.55913 18.1627 3.87965 17.736C3.64266 17.5871 3.4231 17.4149 3.22526 17.2206C3.03909 17.038 2.87242 16.8359 2.72843 16.6159C2.71085 16.589 2.6936 16.5619 2.67666 16.5343C2.55137 16.3312 2.44495 16.1136 2.36057 15.8824C1.79167 14.3235 2.37783 12.5972 3.69972 11.4802C4.13022 11.1165 4.63872 10.8175 5.21065 10.6099C5.21097 10.6099 5.21129 10.6097 5.21145 10.6096C5.24853 10.596 5.28576 10.5831 5.32299 10.5707C5.33545 10.5666 5.34794 10.5626 5.36038 10.5584C5.38546 10.5501 5.4107 10.542 5.43583 10.5342C5.45052 10.5295 5.4652 10.5253 5.47993 10.5208C5.50292 10.5138 5.52597 10.507 5.54911 10.5004C5.56461 10.4959 5.58011 10.4916 5.5956 10.4875C5.61799 10.4813 5.64052 10.4752 5.6629 10.4695C5.79361 10.4354 5.92448 10.4065 6.05519 10.3834C5.94462 10.3154 5.83598 10.2424 5.72938 10.1645C5.71164 10.1515 5.69405 10.1385 5.67646 10.1253C5.66942 10.12 5.66239 10.1147 5.65541 10.1093C5.6346 10.0936 5.61401 10.0778 5.59351 10.0615C5.59097 10.0595 5.58842 10.0575 5.58587 10.0554C5.56288 10.0374 5.54014 10.019 5.51745 10.0005C5.51108 9.99522 5.50486 9.98996 5.49844 9.98487C5.48151 9.97085 5.46443 9.95662 5.44766 9.9423C5.44093 9.93654 5.4342 9.93083 5.42752 9.92507C5.40642 9.90707 5.38546 9.88892 5.36456 9.87042C5.36308 9.86914 5.36166 9.86802 5.36038 9.86674C5.33815 9.84717 5.31628 9.82708 5.29439 9.807C5.28799 9.80108 5.28176 9.79537 5.27537 9.78946C5.25907 9.77432 5.24277 9.75902 5.22663 9.74358C5.22024 9.73751 5.21385 9.73144 5.20746 9.72522C5.18588 9.70452 5.16431 9.68347 5.14305 9.66231C5.02288 9.54246 4.91038 9.41832 4.80539 9.29051C4.08979 8.41987 3.724 7.37727 3.71985 6.37153C3.71553 5.37022 4.06966 4.40542 4.79436 3.6827C5.5146 2.96428 6.47517 2.61096 7.47281 2.61096C8.6349 2.61096 9.84747 3.09033 10.7903 4.03044C11.213 4.45196 11.5428 4.92783 11.778 5.4289C11.7779 5.42875 11.778 5.42905 11.778 5.4289C11.7918 5.45822 11.8054 5.48799 11.8185 5.51751C11.8228 5.52734 11.8269 5.53708 11.8313 5.54697C11.8399 5.56691 11.8487 5.58679 11.857 5.60672C11.862 5.61855 11.8668 5.63033 11.8715 5.6421C11.879 5.6601 11.8864 5.6783 11.8936 5.69645C11.8986 5.70904 11.9035 5.72178 11.9083 5.73438C11.915 5.75176 11.9217 5.76915 11.9283 5.78663C11.9331 5.79973 11.9379 5.81278 11.9427 5.82584C11.9489 5.84307 11.9551 5.8603 11.961 5.87748C11.9657 5.89073 11.9701 5.90394 11.9746 5.91719C11.9804 5.93437 11.9861 5.95145 11.9917 5.96863C11.996 5.98189 12.0004 5.99524 12.0045 6.00865C12.01 6.02588 12.0152 6.04322 12.0205 6.06045C12.0245 6.07365 12.0285 6.08691 12.0325 6.10011C12.1146 6.38015 12.1691 6.66365 12.1952 6.94654C12.2212 6.66365 12.2755 6.37999 12.3578 6.09996C12.3617 6.08691 12.3656 6.07365 12.3697 6.0606C12.3749 6.04322 12.3804 6.02588 12.3858 6.0085C12.39 5.99524 12.3942 5.98204 12.3986 5.96884C12.4042 5.9516 12.41 5.93422 12.4158 5.91704C12.4203 5.90378 12.4248 5.89073 12.4294 5.87763C12.4355 5.8603 12.4417 5.84307 12.448 5.82568C12.4526 5.81278 12.4574 5.79989 12.4622 5.78699C12.4687 5.76945 12.4755 5.75176 12.4823 5.73422C12.4871 5.72163 12.4919 5.70919 12.4969 5.6966C12.5041 5.67845 12.5116 5.6601 12.519 5.64195C12.5238 5.63033 12.5286 5.61855 12.5335 5.60687C12.5419 5.58679 12.5507 5.56675 12.5593 5.54667C12.5635 5.53693 12.5676 5.52734 12.572 5.51766C12.5852 5.48799 12.5986 5.45837 12.6125 5.4289C12.8478 4.92783 13.1776 4.45196 13.6003 4.03044C14.5428 3.09033 15.7555 2.61096 16.9176 2.61096C17.9155 2.61096 18.8757 2.96428 19.5962 3.6827C19.9125 3.99809 20.1579 4.35969 20.3341 4.75014C20.3454 4.77532 20.3564 4.8005 20.3671 4.82583C20.3819 4.86042 20.3959 4.89516 20.4095 4.93022C20.4181 4.95237 20.4264 4.97452 20.4347 4.99684C20.4713 5.09644 20.5036 5.19765 20.5316 5.30028C20.5361 5.31654 20.5404 5.3326 20.5445 5.34886C20.5567 5.39556 20.5678 5.44241 20.5782 5.48942C20.5811 5.50267 20.584 5.51587 20.5867 5.52913C20.6105 5.64322 20.6292 5.75844 20.643 5.87478C20.6511 5.9438 20.6575 6.01329 20.662 6.08308C20.666 6.14426 20.6687 6.20564 20.6699 6.26712C20.6706 6.30031 20.6709 6.3336 20.6709 6.36674C20.6709 6.39896 20.6703 6.43128 20.6695 6.46365C20.6441 7.44089 20.2788 8.44663 19.5849 9.29082C19.4801 9.41847 19.3676 9.54246 19.2475 9.66211C19.2263 9.68332 19.2047 9.70437 19.1832 9.72507C19.1768 9.73114 19.1706 9.7372 19.1641 9.74327C19.1478 9.75872 19.1316 9.77401 19.1152 9.78931C19.109 9.79507 19.1028 9.80093 19.0965 9.80669C19.0747 9.82678 19.0526 9.84686 19.0304 9.86644C19.0291 9.86756 19.0277 9.86883 19.0264 9.86996C19.0055 9.88841 18.9844 9.90676 18.9633 9.92491C18.9567 9.93067 18.95 9.93623 18.9433 9.94184C18.9264 9.95616 18.9093 9.97034 18.8922 9.98451C18.8858 9.98981 18.8796 9.99506 18.8731 10.0002C18.8505 10.0186 18.8276 10.0371 18.8046 10.0551C18.802 10.0571 18.7995 10.0591 18.7971 10.061C18.7765 10.0771 18.7558 10.0932 18.7351 10.109C18.7281 10.1143 18.7212 10.1195 18.7141 10.1248C18.6965 10.138 18.6788 10.1511 18.6613 10.164C18.5547 10.2419 18.446 10.3149 18.3356 10.383C18.4663 10.4061 18.5972 10.4349 18.7279 10.469C18.7503 10.4749 18.7728 10.481 18.7951 10.4872C18.8107 10.4915 18.8262 10.4958 18.8415 10.5001C18.8645 10.5066 18.8875 10.5135 18.9107 10.5205C18.9254 10.525 18.9401 10.5292 18.9548 10.5339C18.9799 10.5417 19.0051 10.55 19.0302 10.5581C19.0427 10.5622 19.0551 10.566 19.0676 10.5704C19.105 10.583 19.1424 10.596 19.1798 10.6096C19.7514 10.8171 20.2598 11.1159 20.6901 11.4792C21.5195 12.1796 22.0595 13.1201 22.2063 14.1086C22.2127 14.1515 22.2183 14.1944 22.2233 14.2372C22.2239 14.2426 22.2245 14.2482 22.2252 14.2537C22.2302 14.2986 22.2341 14.3437 22.2375 14.3888C22.2378 14.3923 22.2379 14.3958 22.2383 14.3993C22.2415 14.4465 22.2439 14.4936 22.2454 14.5408C22.2454 14.5423 22.2454 14.5438 22.2454 14.5453C22.2587 14.9925 22.19 15.4438 22.0302 15.8819C21.7423 16.6707 21.2002 17.3028 20.5103 17.7358C19.8312 18.1623 19.0085 18.3957 18.1444 18.3957C17.5874 18.3957 17.013 18.2987 16.4486 18.0939C16.4147 18.0816 16.3812 18.0689 16.3478 18.056C16.3374 18.052 16.327 18.0478 16.3166 18.0437C16.2931 18.0345 16.2698 18.025 16.2465 18.0155C16.2353 18.0109 16.2239 18.0062 16.2127 18.0015C16.1888 17.9914 16.165 17.981 16.1412 17.9707C16.132 17.9667 16.123 17.9629 16.1138 17.9588C16.0816 17.9444 16.0494 17.9298 16.0178 17.9148C16.0122 17.9122 16.0068 17.9095 16.0012 17.9068C15.9748 17.8942 15.9486 17.8816 15.9225 17.8687C15.9121 17.8636 15.902 17.8583 15.8917 17.8531C15.87 17.8421 15.8484 17.831 15.8268 17.8198C15.8165 17.8144 15.8061 17.8089 15.7957 17.8034C15.7717 17.7906 15.7479 17.7777 15.7242 17.7645C15.7174 17.7607 15.7105 17.757 15.7036 17.7532C15.6734 17.7363 15.6435 17.7191 15.6138 17.7017C15.6063 17.6972 15.5988 17.6928 15.5914 17.6883C15.5691 17.6751 15.5469 17.6615 15.5248 17.648C15.5149 17.6419 15.505 17.6357 15.4951 17.6295C15.4748 17.6167 15.4547 17.604 15.4345 17.5909C15.4252 17.5849 15.416 17.579 15.4067 17.5729C15.3814 17.5564 15.3564 17.5396 15.3316 17.5227C15.3282 17.5205 15.3249 17.5183 15.3215 17.516C15.2936 17.4967 15.2658 17.4773 15.2383 17.4575C15.2301 17.4517 15.2221 17.4457 15.2141 17.4399C15.1945 17.4255 15.175 17.4112 15.1557 17.3967C15.1464 17.3897 15.1371 17.3828 15.128 17.3758C15.1089 17.3613 15.09 17.3465 15.0711 17.3317C15.0633 17.3254 15.0553 17.3192 15.0475 17.313C15.0213 17.2921 14.9952 17.2711 14.9695 17.2497C14.9671 17.2476 14.9645 17.2456 14.9621 17.2435C14.9388 17.2241 14.9158 17.2046 14.8931 17.1849C14.8851 17.1778 14.8771 17.1709 14.8691 17.1638C14.8516 17.1485 14.8343 17.1329 14.817 17.1175C14.8087 17.11 14.8003 17.1023 14.7921 17.0946C14.7739 17.0779 14.7558 17.061 14.7379 17.0442C14.7317 17.0383 14.7253 17.0323 14.7191 17.0263C14.6952 17.0035 14.6718 16.9805 14.6486 16.9575C14.6437 16.9525 14.6387 16.9474 14.6337 16.9425C14.6154 16.924 14.5972 16.9054 14.5793 16.8867C14.5717 16.8789 14.5642 16.8709 14.5567 16.8629C14.541 16.8464 14.5255 16.8298 14.51 16.8129C14.5027 16.8049 14.4954 16.797 14.4882 16.789C14.4703 16.7692 14.4527 16.7495 14.4351 16.7294C14.4311 16.7248 14.4269 16.7203 14.423 16.7157C14.4017 16.6911 14.3807 16.6665 14.36 16.6416C14.3544 16.6347 14.3488 16.6279 14.3432 16.621C14.328 16.6025 14.313 16.5841 14.2982 16.5654C14.2913 16.5568 14.2846 16.5482 14.2777 16.5396C14.2636 16.5217 14.2497 16.5037 14.236 16.4856C14.2299 16.4776 14.2237 16.4695 14.2178 16.4615C14.0712 16.2661 13.9423 16.0612 13.8325 15.8489C13.851 16.0924 13.8795 16.333 13.917 16.5707C13.9172 16.5721 13.9173 16.5734 13.9175 16.5746C13.9194 16.5871 13.9217 16.5995 13.9237 16.612C13.9262 16.6266 13.9286 16.6411 13.931 16.6558C13.9346 16.6775 13.9383 16.699 13.9421 16.7205C13.9445 16.7344 13.9469 16.7482 13.9495 16.7619C13.9536 16.7852 13.9581 16.8086 13.9624 16.8319C13.9646 16.8438 13.9669 16.8556 13.9691 16.8676C13.9752 16.8988 13.9814 16.93 13.9878 16.9611C13.9886 16.965 13.9894 16.9689 13.9902 16.9727C13.9974 17.0077 14.0049 17.0425 14.0124 17.0775C14.0148 17.0881 14.0172 17.0987 14.0196 17.1093C14.0251 17.1335 14.0303 17.1576 14.0359 17.1817C14.039 17.1949 14.0421 17.2081 14.0454 17.2214C14.0504 17.2427 14.0554 17.2641 14.0607 17.2854C14.0642 17.2996 14.0677 17.3138 14.0712 17.328C14.0763 17.3484 14.0814 17.3688 14.0867 17.3892C14.0904 17.4037 14.0942 17.418 14.0981 17.4325C14.1034 17.4526 14.1086 17.4725 14.1141 17.4924C14.1179 17.507 14.1219 17.5213 14.1259 17.5358C14.1315 17.5559 14.1371 17.576 14.1427 17.596C14.1466 17.6101 14.1507 17.6242 14.1547 17.6382C14.1606 17.6588 14.1666 17.6794 14.1727 17.6999C14.1767 17.7133 14.1805 17.7267 14.1847 17.7401C14.1914 17.7624 14.1983 17.7846 14.2052 17.8067C14.2086 17.8182 14.2122 17.8297 14.2157 17.8412C14.2253 17.8716 14.235 17.902 14.2449 17.9323C14.2459 17.9355 14.2469 17.9385 14.248 17.9417C14.259 17.9752 14.27 18.0085 14.2814 18.0418C14.2849 18.0522 14.2886 18.0625 14.2921 18.0729C14.2999 18.0956 14.3079 18.1186 14.3159 18.1414C14.3204 18.1541 14.325 18.1669 14.3296 18.1797C14.337 18.1999 14.3442 18.2201 14.3517 18.2404C14.3566 18.2539 14.3617 18.2676 14.3669 18.2812C14.3741 18.3006 14.3814 18.3199 14.3888 18.3392C14.3941 18.353 14.3993 18.3668 14.4048 18.3806C14.4121 18.3997 14.4196 18.4187 14.4269 18.4377C14.4324 18.4513 14.4378 18.4652 14.4433 18.4789C14.4509 18.498 14.4586 18.5172 14.4664 18.5362C14.4719 18.5495 14.4775 18.5631 14.4829 18.5764C14.491 18.5961 14.4992 18.6155 14.5075 18.6351C14.5129 18.6479 14.5182 18.6606 14.5236 18.6732C14.5327 18.6944 14.5418 18.7154 14.5511 18.7365C14.5559 18.7473 14.5606 18.7583 14.5653 18.7691C14.5781 18.7982 14.5912 18.8272 14.6044 18.856C14.6056 18.8589 14.6069 18.8617 14.6082 18.8644C14.6226 18.8961 14.6372 18.9275 14.652 18.9591C14.6568 18.9691 14.6615 18.9792 14.6663 18.9894C14.6764 19.0107 14.6866 19.0319 14.6969 19.0533C14.7028 19.0655 14.7089 19.0777 14.7148 19.0899C14.7242 19.1091 14.7334 19.128 14.7431 19.1472C14.7494 19.1601 14.756 19.1728 14.7624 19.1856C14.7717 19.2039 14.7809 19.2221 14.7903 19.2404C14.7971 19.2535 14.8038 19.2665 14.8106 19.2796C14.8199 19.2975 14.8293 19.3153 14.8388 19.3331C14.8456 19.3462 14.8527 19.3592 14.8596 19.3723C14.8691 19.3902 14.8787 19.408 14.8885 19.4259C14.8953 19.4386 14.9024 19.4514 14.9093 19.464C14.9193 19.4823 14.9296 19.5006 14.9397 19.519C14.9465 19.5309 14.9532 19.543 14.9599 19.555C14.9711 19.5749 14.9826 19.5947 14.9939 19.6144C14.9999 19.6246 15.0056 19.6348 15.0115 19.645C15.0278 19.6731 15.0443 19.701 15.0609 19.7289C15.062 19.7307 15.0631 19.7325 15.0642 19.7344C15.082 19.7641 15.0999 19.7937 15.1179 19.8232C15.1238 19.8328 15.1298 19.8421 15.1357 19.8517C15.148 19.8716 15.1603 19.8914 15.1726 19.9112C15.1798 19.9226 15.1872 19.9341 15.1945 19.9456C15.2058 19.9633 15.217 19.9809 15.2283 19.9986C15.2362 20.0108 15.2441 20.0227 15.2519 20.0348C15.2629 20.0517 15.2741 20.0688 15.2852 20.0857C15.2934 20.0979 15.3016 20.1102 15.3097 20.1223C15.3209 20.139 15.3321 20.1556 15.3433 20.1722C15.3516 20.1843 15.3597 20.1966 15.368 20.2087C15.3794 20.2252 15.3909 20.242 15.4025 20.2586C15.4109 20.2704 15.419 20.2823 15.4273 20.2941C15.4393 20.3112 15.4514 20.3282 15.4636 20.3451C15.4716 20.3563 15.4794 20.3674 15.4874 20.3784C15.5008 20.3969 15.5142 20.4154 15.5277 20.4339C15.5345 20.4433 15.5414 20.4527 15.5483 20.4621C15.5676 20.4882 15.5869 20.5142 15.6066 20.5402C15.6077 20.5418 15.609 20.5434 15.6101 20.5449C15.6309 20.5724 15.6518 20.5996 15.6728 20.6269C15.6796 20.6358 15.6867 20.6447 15.6937 20.6535C15.7079 20.6718 15.7223 20.69 15.7367 20.7081C15.745 20.7187 15.7537 20.7292 15.762 20.7398C15.7751 20.7563 15.7882 20.7725 15.8014 20.7888C15.8105 20.7999 15.8196 20.8111 15.8287 20.8221C15.8415 20.8377 15.8543 20.8533 15.8672 20.8688C15.8767 20.8801 15.8859 20.8913 15.8954 20.9026C15.9082 20.9179 15.9211 20.9332 15.9341 20.9483C15.9435 20.9595 15.9531 20.9706 15.9627 20.9818C15.9758 20.9971 15.989 21.0122 16.0023 21.0275C16.0117 21.0383 16.0211 21.0492 16.0307 21.0601C16.0445 21.0757 16.0584 21.0913 16.0723 21.1069C16.0814 21.1171 16.0903 21.1273 16.0995 21.1373C16.1146 21.1542 16.13 21.1711 16.1455 21.1879C16.1533 21.1964 16.1611 21.205 16.1691 21.2137C16.1915 21.238 16.214 21.2621 16.2367 21.2861C16.2377 21.2871 16.2385 21.2881 16.2394 21.2891C16.2629 21.314 16.2868 21.3389 16.3106 21.3636C16.3186 21.3719 16.3265 21.3801 16.3344 21.3882C16.3503 21.4047 16.3665 21.4211 16.3826 21.4376C16.392 21.4471 16.4016 21.4567 16.4112 21.4663C16.4261 21.4811 16.4408 21.4959 16.4557 21.5107C16.4659 21.5208 16.4761 21.5308 16.4862 21.5408C16.5006 21.555 16.5151 21.5692 16.5296 21.5832C16.5402 21.5934 16.5507 21.6035 16.5613 21.6136C16.5757 21.6275 16.5902 21.6412 16.6048 21.6549C16.6155 21.665 16.626 21.675 16.6367 21.6851C16.6514 21.6989 16.6663 21.7127 16.6811 21.7263C16.6917 21.7361 16.7022 21.7458 16.7128 21.7555C16.7283 21.7697 16.7438 21.7837 16.7593 21.7977C16.7693 21.8068 16.7794 21.8159 16.7895 21.825C16.8066 21.8403 16.8238 21.8554 16.8411 21.8707C16.8497 21.8784 16.8583 21.886 16.867 21.8935C16.8926 21.9158 16.9183 21.9381 16.944 21.9601C16.9443 21.9605 16.9447 21.9606 16.945 21.9609C15.5675 22.8194 13.9397 23.3155 12.1958 23.3155C10.4518 23.3155 8.77474 22.8041 7.3843 21.9214C7.38491 21.9209 7.38542 21.9204 7.38604 21.92H7.38476Z"
        fill="#10D63F" />
      <path
        d="M9.03488 14.2812C9.8808 14.2812 10.5666 12.9846 10.5666 11.3852C10.5666 9.78578 9.8808 8.4892 9.03488 8.4892C8.18896 8.4892 7.50317 9.78578 7.50317 11.3852C7.50317 12.9846 8.18896 14.2812 9.03488 14.2812Z"
        fill="#10D63F" />
      <path
        d="M15.3557 14.2812C16.2016 14.2812 16.8874 12.9846 16.8874 11.3852C16.8874 9.78578 16.2016 8.4892 15.3557 8.4892C14.5098 8.4892 13.824 9.78578 13.824 11.3852C13.824 12.9846 14.5098 14.2812 15.3557 14.2812Z"
        fill="#10D63F" />
    </g>
  </g>
  <defs>
    <clipPath id="clip0_649_1618">
      <rect width="80.549" height="26" fill="white" transform="translate(0.225586)" />
    </clipPath>
  </defs>
</svg>
  